<svg width="24" height="24" viewBox="0 0 24 24" fill="none" xmlns="http://www.w3.org/2000/svg">
<path d="M14.0504 5.63615C13.6599 5.24563 13.0267 5.24563 12.6362 5.63615C12.2456 6.02668 12.2456 6.65984 12.6362 7.05037L16.2445 10.6587C16.3705 10.7847 16.2812 11.0001 16.1031 11.0001H5C4.44772 11.0001 4 11.4478 4 12.0001C4 12.5524 4.44772 13.0001 5 13.0001H16.1031C16.2812 13.0001 16.3705 13.2155 16.2445 13.3415L12.6362 16.9499C12.2456 17.3404 12.2456 17.9736 12.6362 18.3641C13.0267 18.7546 13.6599 18.7546 14.0504 18.3641L19.7072 12.7072C20.0978 12.3167 20.0978 11.6835 19.7072 11.293L14.0504 5.63615Z" fill="#171717"/>
</svg>
