<svg width="24" height="24" viewBox="0 0 24 24" fill="none" xmlns="http://www.w3.org/2000/svg">
<path d="M3.5 10.3114C3.5 5.72114 7.22114 2 11.8114 2H12.1886C16.7789 2 20.5 5.72114 20.5 10.3114V10.3114C20.5 12.6732 19.5618 14.9382 17.8918 16.6082L12.7071 21.7929C12.3166 22.1834 11.6834 22.1834 11.2929 21.7929L6.10824 16.6082C4.43821 14.9382 3.5 12.6732 3.5 10.3114V10.3114Z" fill="#FF5236"/>
<path d="M12 7.1875C12.1875 7.1875 12.3125 7.0625 12.3125 6.875V5.9375C12.3125 5.75 12.1875 5.625 12 5.625C11.8125 5.625 11.6875 5.75 11.6875 5.9375V6.875C11.6875 7.0625 11.8125 7.1875 12 7.1875Z" fill="white"/>
<path d="M9.5625 8C9.625 8.0625 9.71875 8.09375 9.78125 8.09375C9.84375 8.09375 9.9375 8.0625 10 8C10.125 7.875 10.125 7.6875 10 7.5625L9.34375 6.90625C9.21875 6.78125 9.03125 6.78125 8.90625 6.90625C8.78125 7.03125 8.78125 7.21875 8.90625 7.34375L9.5625 8Z" fill="white"/>
<path d="M7.9375 10.3125H8.875C9.0625 10.3125 9.1875 10.1875 9.1875 10C9.1875 9.8125 9.0625 9.6875 8.875 9.6875H7.9375C7.75 9.6875 7.625 9.8125 7.625 10C7.625 10.1875 7.75 10.3125 7.9375 10.3125Z" fill="white"/>
<path d="M14.8125 10C14.8125 10.1875 14.9375 10.3125 15.125 10.3125H16.0625C16.25 10.3125 16.375 10.1875 16.375 10C16.375 9.8125 16.25 9.6875 16.0625 9.6875H15.125C14.9375 9.6875 14.8125 9.8125 14.8125 10Z" fill="white"/>
<path d="M14.2188 8.09375C14.3125 8.09375 14.375 8.0625 14.4375 8L15.0937 7.34375C15.2187 7.21875 15.2187 7.03125 15.0937 6.90625C14.9687 6.78125 14.7813 6.78125 14.6563 6.90625L14 7.5625C13.875 7.6875 13.875 7.875 14 8C14.0625 8.0625 14.125 8.09375 14.2188 8.09375Z" fill="white"/>
<path d="M9.75 11.0625C9.78125 11.1875 9.90625 11.25 10.0312 11.25H13.9687C14.0937 11.25 14.1875 11.1875 14.25 11.0625C14.4063 10.7187 14.5 10.375 14.5 10C14.5 8.625 13.375 7.5 12 7.5C10.625 7.5 9.5 8.625 9.5 10C9.5 10.375 9.59375 10.7187 9.75 11.0625Z" fill="white"/>
<path d="M16.0625 11.875H7.9375C7.75 11.875 7.625 12 7.625 12.1875C7.625 12.375 7.75 12.5 7.9375 12.5H16.0625C16.25 12.5 16.375 12.375 16.375 12.1875C16.375 12 16.25 11.875 16.0625 11.875Z" fill="white"/>
<path d="M12.9375 13.125H9.1875C9 13.125 8.875 13.25 8.875 13.4375C8.875 13.625 9 13.75 9.1875 13.75H12.9375C13.125 13.75 13.25 13.625 13.25 13.4375C13.25 13.25 13.125 13.125 12.9375 13.125Z" fill="white"/>
<path d="M14.8125 13.125H14.1875C14 13.125 13.875 13.25 13.875 13.4375C13.875 13.625 14 13.75 14.1875 13.75H14.8125C15 13.75 15.125 13.625 15.125 13.4375C15.125 13.25 15 13.125 14.8125 13.125Z" fill="white"/>
</svg>
