<?xml version="1.0" encoding="iso-8859-1"?>
<!-- Uploaded to: SVG Repo, www.svgrepo.com, Generator: SVG Repo Mixer Tools -->
<svg fill="#000000" height="800px" width="800px" version="1.1" id="Layer_1" xmlns="http://www.w3.org/2000/svg" xmlns:xlink="http://www.w3.org/1999/xlink" 
	 viewBox="0 0 512.004 512.004" xml:space="preserve">
<g>
	<g>
		<path d="M499.252,296.002H11.884C0,296.002,0,306.066,0,310.366v27.972c0,5.284,0,17.664,11.884,17.664h487.364
			c8.812,0,12.752-8.872,12.756-17.664v-27.972C512.004,298.494,505.068,296.002,499.252,296.002z M504.004,338.338
			c0,3.884-1.268,9.664-4.752,9.664H11.884c-1.912,0-3.884,0-3.884-9.664v-27.972c0-6.364,0.9-6.364,3.884-6.364h487.368
			c2.96,0,4.752,0.428,4.752,6.364V338.338z"/>
	</g>
</g>
<g>
	<g>
		<path d="M88,348.002H36c-2.212,0-4,1.792-4,4v120c0,2.208,1.788,4,4,4h52c2.212,0,4-1.792,4-4v-120
			C92,349.794,90.212,348.002,88,348.002z M84,468.002H40v-112h44V468.002z"/>
	</g>
</g>
<g>
	<g>
		<path d="M476,348.002h-52c-2.212,0-4,1.792-4,4v120c0,2.208,1.788,4,4,4h52c2.212,0,4-1.792,4-4v-120
			C480,349.794,478.212,348.002,476,348.002z M472,468.002h-44v-112h44V468.002z"/>
	</g>
</g>
<g>
	<g>
		<path d="M424,392.002H88c-2.212,0-4,1.792-4,4s1.788,4,4,4h336c2.212,0,4-1.792,4-4S426.212,392.002,424,392.002z"/>
	</g>
</g>
<g>
	<g>
		<path d="M492,312.002h-32c-2.212,0-4,1.792-4,4s1.788,4,4,4h32c2.212,0,4-1.792,4-4S494.212,312.002,492,312.002z"/>
	</g>
</g>
<g>
	<g>
		<path d="M432,312.002H20c-2.212,0-4,1.792-4,4s1.788,4,4,4h412c2.212,0,4-1.792,4-4S434.212,312.002,432,312.002z"/>
	</g>
</g>
<g>
	<g>
		<path d="M88,36.002H52c-2.212,0-4,1.792-4,4v32c0,2.208,1.788,4,4,4s4-1.792,4-4v-28h28v28c0,2.208,1.788,4,4,4s4-1.792,4-4v-32
			C92,37.794,90.212,36.002,88,36.002z"/>
	</g>
</g>
<g>
	<g>
		<path d="M88,220.002c-2.212,0-4,1.792-4,4v72H56v-72c0-2.208-1.788-4-4-4s-4,1.792-4,4v76c0,2.208,1.788,4,4,4h36
			c2.212,0,4-1.792,4-4v-76C92,221.794,90.212,220.002,88,220.002z"/>
	</g>
</g>
<g>
	<g>
		<path d="M456,36.002h-36c-2.212,0-4,1.792-4,4v32c0,2.208,1.788,4,4,4c2.212,0,4-1.792,4-4v-28h28v28c0,2.208,1.788,4,4,4
			c2.212,0,4-1.792,4-4v-32C460,37.794,458.212,36.002,456,36.002z"/>
	</g>
</g>
<g>
	<g>
		<path d="M456,220.002c-2.212,0-4,1.792-4,4v72h-28v-72c0-2.208-1.788-4-4-4c-2.212,0-4,1.792-4,4v76c0,2.208,1.788,4,4,4h36
			c2.212,0,4-1.792,4-4v-76C460,221.794,458.212,220.002,456,220.002z"/>
	</g>
</g>
<g>
	<g>
		<path d="M508,68.002H4c-2.212,0-4,1.792-4,4v76c0,2.208,1.788,4,4,4h504c2.212,0,4-1.792,4-4v-76
			C512,69.794,510.212,68.002,508,68.002z M504,144.002H8v-68h496V144.002z"/>
	</g>
</g>
<g>
	<g>
		<path d="M508,144.002H4c-2.212,0-4,1.792-4,4v76c0,2.208,1.788,4,4,4h504c2.212,0,4-1.792,4-4v-76
			C512,145.794,510.212,144.002,508,144.002z M504,220.002H8v-68h496V220.002z"/>
	</g>
</g>
<g>
	<g>
		<path d="M172,84.002H36c-2.212,0-4,1.792-4,4s1.788,4,4,4h136c2.212,0,4-1.792,4-4S174.212,84.002,172,84.002z"/>
	</g>
</g>
<g>
	<g>
		<path d="M264,84.002h-64c-2.212,0-4,1.792-4,4s1.788,4,4,4h64c2.212,0,4-1.792,4-4S266.212,84.002,264,84.002z"/>
	</g>
</g>
<g>
	<g>
		<path d="M308,84.002h-20c-2.212,0-4,1.792-4,4s1.788,4,4,4h20c2.212,0,4-1.792,4-4S310.212,84.002,308,84.002z"/>
	</g>
</g>
</svg>