<svg width="24" height="24" viewBox="0 0 24 24" fill="none" xmlns="http://www.w3.org/2000/svg">
<path fill-rule="evenodd" clip-rule="evenodd" d="M4 6C4 3.79086 5.79086 2 8 2H18C19.1046 2 20 2.89543 20 4V20C20 21.1046 19.1046 22 18 22H8C5.79086 22 4 20.2091 4 18V6ZM6 18C6 16.8954 6.89543 16 8 16H17C17.5523 16 18 16.4477 18 17V19C18 19.5523 17.5523 20 17 20H8C6.89543 20 6 19.1046 6 18ZM6.5 5C6.22386 5 6 5.22386 6 5.5V13.5C6 13.7761 6.22386 14 6.5 14C6.77614 14 7 13.7761 7 13.5V5.5C7 5.22386 6.77614 5 6.5 5Z" fill="#171717"/>
</svg>
