<svg width="24" height="24" viewBox="0 0 24 24" fill="none" xmlns="http://www.w3.org/2000/svg">
<path d="M3.5 10.3114C3.5 5.72114 7.22114 2 11.8114 2H12.1886C16.7789 2 20.5 5.72114 20.5 10.3114V10.3114C20.5 12.6732 19.5618 14.9382 17.8918 16.6082L12.7071 21.7929C12.3166 22.1834 11.6834 22.1834 11.2929 21.7929L6.10824 16.6082C4.43821 14.9382 3.5 12.6732 3.5 10.3114V10.3114Z" fill="#FF5236"/>
<g clip-path="url(#clip0_39_4168)">
<path d="M15.1875 13.75H8.9375C8.75 13.75 8.625 13.875 8.625 14.0625C8.625 14.25 8.75 14.375 8.9375 14.375H15.1875C15.375 14.375 15.5 14.25 15.5 14.0625C15.5 13.875 15.375 13.75 15.1875 13.75Z" fill="white"/>
<path d="M15.8125 8.4375C15.5938 8.4375 15.375 8.5 15.1875 8.625V8.4375C15.1875 8.25 15.0625 8.125 14.875 8.125H9.25C9.0625 8.125 8.9375 8.25 8.9375 8.4375V10.375C8.9375 12.0625 10.3438 13.4375 12.0625 13.4375C13.375 13.4375 14.5 12.6562 14.9687 11.5312C15.1875 11.75 15.4687 11.875 15.8125 11.875C16.5 11.875 17.0625 11.3125 17.0625 10.625V9.6875C17.0625 9 16.5 8.4375 15.8125 8.4375ZM16.4375 10.625C16.4375 10.9688 16.1563 11.25 15.8125 11.25C15.4687 11.25 15.1875 10.9688 15.1875 10.625V10.375V9.6875C15.1875 9.34375 15.4687 9.0625 15.8125 9.0625C16.1563 9.0625 16.4375 9.34375 16.4375 9.6875V10.625Z" fill="white"/>
<path d="M12.0625 7.8125C12.125 7.8125 12.1875 7.78125 12.25 7.75C12.4063 7.65625 12.4375 7.46875 12.3437 7.3125C12.0312 6.84375 12.0312 6.25 12.3437 5.78125C12.4375 5.625 12.4063 5.4375 12.25 5.34375C12.0938 5.25 11.9062 5.28125 11.8125 5.4375C11.375 6.125 11.375 7 11.8125 7.65625C11.875 7.75 11.9688 7.8125 12.0625 7.8125Z" fill="white"/>
<path d="M10.8125 7.8125C10.875 7.8125 10.9375 7.78125 11 7.75C11.1563 7.65625 11.1875 7.46875 11.0937 7.3125C10.7812 6.84375 10.7812 6.25 11.0937 5.78125C11.1875 5.625 11.1563 5.4375 11 5.34375C10.8438 5.28125 10.6562 5.3125 10.5625 5.4375C10.125 6.125 10.125 7 10.5625 7.65625C10.625 7.75 10.7188 7.8125 10.8125 7.8125Z" fill="white"/>
<path d="M13.3125 7.8125C13.375 7.8125 13.4375 7.78125 13.5 7.75C13.6562 7.65625 13.6875 7.46875 13.5937 7.3125C13.2812 6.84375 13.2812 6.25 13.5937 5.78125C13.6875 5.625 13.6562 5.4375 13.5 5.34375C13.3437 5.25 13.1562 5.28125 13.0625 5.4375C12.625 6.125 12.625 7 13.0625 7.65625C13.125 7.75 13.2187 7.8125 13.3125 7.8125Z" fill="white"/>
</g>
<defs>
<clipPath id="clip0_39_4168">
<rect width="10" height="10" fill="white" transform="translate(8 5)"/>
</clipPath>
</defs>
</svg>
