<svg width="60" height="60" viewBox="0 0 60 60" fill="none" xmlns="http://www.w3.org/2000/svg">
<g clip-path="url(#clip0_1_1203)">
<circle cx="30" cy="30" r="29" stroke="#222222" stroke-width="2"/>
<path d="M37.2502 12C37.2502 14.2091 35.4594 16 33.2502 16C31.0411 16 29.2502 14.2091 29.2502 12C29.2502 9.79086 31.0411 8 33.2502 8C35.4594 8 37.2502 9.79086 37.2502 12Z" fill="black"/>
<path d="M31.6928 32.3968L36.8857 37.5207C37.0848 37.7172 37.2405 37.9533 37.3427 38.2137L40.112 45.2693C40.5155 46.2975 40.0091 47.4582 38.9809 47.8617C37.9527 48.2653 36.7921 47.7589 36.3885 46.7307L33.7743 40.07L24.8455 31.2598C24.4087 30.8288 24.1939 30.2211 24.2629 29.6113L24.9781 23.2919C23.2542 25.0046 21.9244 27.4143 20.9053 30.607C20.5695 31.6592 19.4442 32.24 18.3919 31.9041C17.3396 31.5682 16.7589 30.4429 17.0948 29.3907C18.965 23.5312 22.0701 19.1454 27.2797 17.1341L27.3034 17.1251C28.6301 16.6321 30.0105 16.6718 31.2398 17.3074C32.4214 17.9182 33.2624 18.9731 33.8131 20.1554C34.0449 20.6532 34.2594 21.1184 34.4607 21.5551C34.9485 22.6129 35.3594 23.5041 35.7535 24.2873C36.3073 25.3877 36.7523 26.1161 37.1921 26.6285C37.5998 27.1034 38.0055 27.3952 38.5225 27.597C39.0782 27.8141 39.8572 27.9636 41.06 27.9997C42.1641 28.0328 43.0323 28.9547 42.9992 30.0588C42.966 31.1628 42.0442 32.031 40.9401 31.9979C39.4952 31.9546 38.2121 31.77 37.0673 31.323C35.8838 30.8608 34.9506 30.1584 34.157 29.2339C33.6565 28.6508 33.2176 27.9859 32.8062 27.2621L31.6928 32.3968Z" fill="black"/>
<path d="M24.2627 34.2198L27.5778 37.3994L26.0524 42.547C25.9343 42.9453 25.6952 43.297 25.3681 43.5531L20.2335 47.5755C19.364 48.2566 18.1069 48.1039 17.4257 47.2344C16.7445 46.3649 16.8972 45.1078 17.7668 44.4266L22.3987 40.7981L23.7944 36.0881L24.2627 34.2198Z" fill="black"/>
</g>
<defs>
<clipPath id="clip0_1_1203">
<rect width="60" height="60" fill="white"/>
</clipPath>
</defs>
</svg>
