<svg width="24" height="24" viewBox="0 0 24 24" fill="none" xmlns="http://www.w3.org/2000/svg">
<path d="M10.9999 9C10.9999 10.6569 9.6568 12 7.99995 12C6.3431 12 4.99995 10.6569 4.99995 9C4.99995 7.34315 6.3431 6 7.99995 6C9.6568 6 10.9999 7.34315 10.9999 9Z" fill="#171717"/>
<path d="M19 9C19 10.6569 17.6568 12 16 12C14.3431 12 13 10.6569 13 9C13 7.34315 14.3431 6 16 6C17.6568 6 19 7.34315 19 9Z" fill="#171717"/>
<path d="M12 18C12.5522 18 13.01 17.5479 12.9003 17.0066C12.8366 16.6924 12.7426 16.3842 12.6193 16.0866C12.3681 15.48 11.9998 14.9288 11.5355 14.4645C11.0712 14.0002 10.52 13.6319 9.91337 13.3806C9.30674 13.1293 8.65656 13 7.99995 13C7.34334 13 6.69316 13.1293 6.08653 13.3806C5.4799 13.6319 4.92871 14.0002 4.46442 14.4645C4.00012 14.9288 3.63183 15.48 3.38055 16.0866C3.25726 16.3842 3.16332 16.6924 3.09962 17.0066C2.9899 17.5479 3.44767 18 3.99995 18H12Z" fill="#171717"/>
<path d="M13.5432 15.7039C13.6912 16.0611 13.8039 16.4309 13.8804 16.808C13.9073 16.941 13.9199 17.0698 13.9196 17.1938C13.9188 17.5729 14.1769 18 14.5559 18H20C20.5522 18 21.01 17.5479 20.9003 17.0066C20.8366 16.6924 20.7426 16.3842 20.6193 16.0866C20.3681 15.48 19.9998 14.9288 19.5355 14.4645C19.0712 14.0002 18.52 13.6319 17.9134 13.3806C17.3067 13.1293 16.6566 13 15.9999 13C15.3433 13 14.6932 13.1293 14.0865 13.3806C13.7214 13.5319 13.3763 13.7255 13.0581 13.957C12.8427 14.1138 12.82 14.417 12.9693 14.6376C13.1955 14.972 13.388 15.3291 13.5432 15.7039Z" fill="#171717"/>
<circle cx="8" cy="9" r="3" fill="#171717"/>
<path d="M12 18C12.5523 18 13.0101 17.5479 12.9003 17.0066C12.7065 16.0506 12.2355 15.1645 11.5355 14.4645C10.5979 13.5268 9.32608 13 8 13C6.67392 13 5.40215 13.5268 4.46447 14.4645C3.76447 15.1645 3.29346 16.0506 3.09965 17.0066C2.98992 17.5479 3.44772 18 4 18L8 18H12Z" fill="#171717"/>
</svg>
