<svg width="24" height="24" viewBox="0 0 24 24" fill="none" xmlns="http://www.w3.org/2000/svg">
<path fill-rule="evenodd" clip-rule="evenodd" d="M5.3288 3.38813C4.10973 3.18496 3 4.12504 3 5.36092V17.3057C3 18.2834 3.70683 19.1178 4.6712 19.2785L8.6712 19.9452C8.8889 19.9815 9.1111 19.9815 9.3288 19.9452L14.6712 19.0548C14.8889 19.0185 15.1111 19.0185 15.3288 19.0548L18.6712 19.6119C19.8903 19.815 21 18.875 21 17.6391V5.69425C21 4.71658 20.2932 3.8822 19.3288 3.72147L15.3288 3.0548C15.1111 3.01852 14.8889 3.01852 14.6712 3.0548L9.3288 3.9452C9.1111 3.98148 8.8889 3.98148 8.6712 3.9452L5.3288 3.38813ZM9 6.42356C9 6.17914 9.17671 5.97055 9.4178 5.93037L14.4178 5.09703C14.7226 5.04624 15 5.28126 15 5.59023V16.5764C15 16.8209 14.8233 17.0295 14.5822 17.0696L9.5822 17.903C9.27743 17.9538 9 17.7187 9 17.4098V6.42356Z" fill="#FF5236"/>
</svg>
