<svg width="24" height="24" viewBox="0 0 24 24" fill="none" xmlns="http://www.w3.org/2000/svg">
<path d="M3.5 10.3114C3.5 5.72114 7.22114 2 11.8114 2H12.1886C16.7789 2 20.5 5.72114 20.5 10.3114V10.3114C20.5 12.6732 19.5618 14.9382 17.8918 16.6082L12.7071 21.7929C12.3166 22.1834 11.6834 22.1834 11.2929 21.7929L6.10824 16.6082C4.43821 14.9382 3.5 12.6732 3.5 10.3114V10.3114Z" fill="#FF5236"/>
<path d="M16.5832 10.8333C16.5832 11.1096 16.4735 11.3745 16.2781 11.5699C16.0828 11.7652 15.8178 11.875 15.5416 11.875H14.9166V13.3333C14.9166 13.3885 14.8946 13.4415 14.8555 13.4806C14.8165 13.5197 14.7635 13.5416 14.7082 13.5416H13.8749C13.8196 13.5416 13.7666 13.5197 13.7276 13.4806C13.6885 13.4415 13.6666 13.3885 13.6666 13.3333V12.4479C14.0147 12.3576 14.324 12.1565 14.5478 11.875C14.6962 11.6913 14.8042 11.4783 14.8645 11.25C14.8988 11.1137 14.9163 10.9738 14.9166 10.8333C14.9164 10.5208 14.8283 10.2147 14.6624 9.94996C14.7101 9.79759 14.7339 9.63878 14.7332 9.47913C14.7323 9.0715 14.5732 8.68013 14.2895 8.38746C14.2912 8.36946 14.2919 8.35137 14.2916 8.33329C14.291 8.06496 14.2167 7.80194 14.0767 7.57302C13.9367 7.34409 13.7364 7.1581 13.4978 7.03538C13.5584 6.84585 13.6848 6.68427 13.8542 6.57983C14.0235 6.4754 14.2247 6.435 14.4212 6.46596C14.6177 6.49691 14.7967 6.59717 14.9258 6.74861C15.0549 6.90004 15.1255 7.09266 15.1249 7.29163C15.1255 7.36199 15.1164 7.4321 15.0978 7.49996H15.1249C15.2616 7.49969 15.3963 7.53313 15.517 7.59732C15.6377 7.66152 15.7408 7.75448 15.817 7.86799C15.8932 7.98149 15.9403 8.11204 15.954 8.24807C15.9677 8.3841 15.9477 8.52142 15.8957 8.64788C16.0166 8.71013 16.1224 8.79803 16.2058 8.90542C16.2892 9.01282 16.3481 9.13712 16.3784 9.26965C16.4088 9.40218 16.4098 9.53974 16.3815 9.67271C16.3532 9.80569 16.2962 9.93088 16.2145 10.0395C16.33 10.1371 16.4228 10.2586 16.4865 10.3957C16.5502 10.5328 16.5832 10.6821 16.5832 10.8333Z" fill="white"/>
<path d="M14.1888 10.0081C14.3147 9.76552 14.3499 9.48592 14.2879 9.2197C14.2259 8.95348 14.071 8.71813 13.8509 8.55604C13.8804 8.42119 13.8829 8.28182 13.8581 8.14602C13.8333 8.01022 13.7817 7.8807 13.7064 7.76499C13.6311 7.64928 13.5336 7.5497 13.4195 7.47202C13.3054 7.39434 13.177 7.34011 13.0417 7.3125V7.29167C13.0417 7.0154 12.932 6.75045 12.7366 6.5551C12.5413 6.35975 12.2763 6.25 12 6.25C11.7238 6.25 11.4588 6.35975 11.2635 6.5551C11.0681 6.75045 10.9584 7.0154 10.9584 7.29167V7.3125C10.7232 7.36082 10.5119 7.48874 10.3601 7.6747C10.2083 7.86066 10.1253 8.09328 10.125 8.33333C10.1249 8.40872 10.1331 8.48389 10.1494 8.5575C9.9296 8.71968 9.77489 8.95497 9.7131 9.22104C9.6513 9.48712 9.68649 9.76651 9.81232 10.009C9.65396 10.1895 9.55094 10.4118 9.51558 10.6493C9.48022 10.8868 9.51402 11.1294 9.61292 11.3482C9.71183 11.567 9.87167 11.7527 10.0733 11.8831C10.275 12.0134 10.5099 12.083 10.75 12.0833H11.375V13.5417C11.375 13.5969 11.397 13.6499 11.4361 13.689C11.4751 13.7281 11.5281 13.75 11.5834 13.75H12.4167C12.472 13.75 12.5249 13.7281 12.564 13.689C12.6031 13.6499 12.625 13.5969 12.625 13.5417V12.0833H13.25C13.4904 12.0833 13.7257 12.014 13.9276 11.8836C14.1296 11.7533 14.2897 11.5675 14.3888 11.3485C14.4878 11.1295 14.5217 10.8866 14.4862 10.6489C14.4507 10.4111 14.3475 10.1887 14.1888 10.0081Z" fill="white"/>
<path d="M10.3332 12.4479V13.3333C10.3332 13.3885 10.3113 13.4415 10.2722 13.4806C10.2331 13.5197 10.1802 13.5416 10.1249 13.5416H9.29157C9.23632 13.5416 9.18333 13.5197 9.14426 13.4806C9.10519 13.4415 9.08324 13.3885 9.08324 13.3333V11.875H8.45824C8.24517 11.8746 8.03732 11.809 7.86273 11.6868C7.68815 11.5647 7.55522 11.3919 7.48187 11.1919C7.40853 10.9918 7.39829 10.7741 7.45256 10.568C7.50682 10.362 7.62296 10.1775 7.78532 10.0395C7.70374 9.93094 7.64679 9.80587 7.61843 9.67303C7.59008 9.54019 7.591 9.40277 7.62114 9.27032C7.65128 9.13788 7.70991 9.01358 7.79295 8.90609C7.87599 8.7986 7.98144 8.71048 8.10199 8.64788C8.05 8.52142 8.02998 8.3841 8.04372 8.24807C8.05746 8.11204 8.10452 7.98149 8.18074 7.86799C8.25696 7.75448 8.35999 7.66152 8.4807 7.59732C8.60142 7.53313 8.7361 7.49969 8.87282 7.49996H8.90199C8.88338 7.4321 8.87427 7.36199 8.87491 7.29163C8.87431 7.09266 8.94493 6.90004 9.07399 6.74861C9.20306 6.59717 9.38204 6.49691 9.57859 6.46596C9.77514 6.435 9.97628 6.4754 10.1456 6.57983C10.315 6.68427 10.4414 6.84585 10.502 7.03538C10.263 7.15771 10.0625 7.34362 9.92245 7.57262C9.7824 7.80163 9.70827 8.06485 9.70824 8.33329V8.38954C9.51083 8.59162 9.37204 8.84355 9.30673 9.1184C9.24141 9.39324 9.25201 9.68067 9.33741 9.94996C9.17145 10.2147 9.08336 10.5208 9.08324 10.8333C9.08319 10.9029 9.08736 10.9725 9.09574 11.0416C9.1394 11.3723 9.28035 11.6825 9.50069 11.9329C9.72103 12.1833 10.0108 12.3625 10.3332 12.4479Z" fill="white"/>
</svg>
